<svg xmlns="http://www.w3.org/2000/svg" viewBox="0 0 800 520" role="img" aria-labelledby="title desc">
  <title id="title">Custom website preview</title>
  <desc id="desc">Modular blocks and settings panel representing a tailored website build</desc>
  <defs>
    <linearGradient id="bg" x1="0" y1="0" x2="1" y2="1">
      <stop offset="0%" stop-color="#f5f7ff"/>
      <stop offset="100%" stop-color="#ebeefe"/>
    </linearGradient>
  </defs>

  <rect width="800" height="520" rx="28" fill="url(#bg)"/>
  <rect x="70" y="72" width="660" height="376" rx="20" fill="#ffffff" stroke="#d8ddfb" stroke-width="4"/>

  <rect x="102" y="104" width="420" height="312" rx="16" fill="#f8f9ff" stroke="#dbe2fb"/>
  <rect x="124" y="126" width="176" height="94" rx="12" fill="#e0e7ff"/>
  <rect x="314" y="126" width="186" height="48" rx="12" fill="#c7d2fe"/>
  <rect x="314" y="184" width="186" height="36" rx="12" fill="#a5b4fc"/>
  <rect x="124" y="232" width="376" height="78" rx="12" fill="#eef2ff"/>
  <rect x="124" y="322" width="176" height="72" rx="12" fill="#c7d2fe"/>
  <rect x="314" y="322" width="186" height="72" rx="12" fill="#e0e7ff"/>

  <rect x="548" y="104" width="150" height="312" rx="16" fill="#111827"/>
  <rect x="572" y="132" width="102" height="10" rx="5" fill="#f9fafb" opacity="0.8"/>
  <rect x="572" y="156" width="74" height="8" rx="4" fill="#9ca3af"/>

  <g>
    <rect x="572" y="196" width="102" height="26" rx="8" fill="#374151"/>
    <circle cx="590" cy="209" r="6" fill="#4f46e5"/>
    <rect x="604" y="205" width="56" height="8" rx="4" fill="#cbd5e1"/>

    <rect x="572" y="234" width="102" height="26" rx="8" fill="#374151"/>
    <circle cx="590" cy="247" r="6" fill="#06b6d4"/>
    <rect x="604" y="243" width="56" height="8" rx="4" fill="#cbd5e1"/>

    <rect x="572" y="272" width="102" height="26" rx="8" fill="#374151"/>
    <circle cx="590" cy="285" r="6" fill="#22c55e"/>
    <rect x="604" y="281" width="56" height="8" rx="4" fill="#cbd5e1"/>
  </g>

  <rect x="572" y="334" width="102" height="34" rx="10" fill="#4f46e5"/>
  <rect x="594" y="347" width="58" height="8" rx="4" fill="#e0e7ff"/>
</svg>
